<?xml version="1.0" encoding="utf-8"?>
<!DOCTYPE svg PUBLIC "-//W3C//DTD SVG 20010904//EN" "http://www.w3.org/TR/2001/REC-SVG-20010904/DTD/svg10.dtd">
<svg version="1.0" xmlns="http://www.w3.org/2000/svg" width="611px" height="611px" viewBox="0 0 611 611" preserveAspectRatio="xMidYMid meet">
 <g fill="#000000">
  <path d="M266 558.4 c0 -0.8 3.1 -5.2 7 -9.8 5.3 -6.3 6.8 -8.7 6.3 -10.4 -0.3 -1.3 -0.1 -2.2 0.6 -2.2 0.6 0 1.1 0.6 1.1 1.3 0 0.7 1.1 2.8 2.5 4.7 2.7 3.7 2.6 5.3 -0.3 2.7 -1.8 -1.6 -2 -1.6 -3.5 0.1 -2.1 2.3 -2.1 3.7 0 7.3 2.8 4.7 9.9 3.7 7.3 -1.1 -0.7 -1.3 -0.7 -2 0 -2 0.5 0 1 0.4 1 0.9 0 0.4 1.1 2.5 2.5 4.6 2.8 4.1 2.7 5.3 -0.2 3.4 -1.5 -0.9 -4 -0.8 -11.5 0.5 -11.8 2 -12.8 2 -12.8 0z m9.8 -1.9 c1.7 -0.4 3.2 -0.9 3.2 -1.1 0 -0.6 -2 -4.6 -2.7 -5.3 -0.5 -0.6 -7.3 6.1 -7.3 7.2 0 0.4 0.8 0.6 1.8 0.3 0.9 -0.2 3.2 -0.7 5 -1.1z"/>
  <path d="M333.6 556.2 c-7.1 -1.2 -9.3 -1.3 -10.8 -0.3 -3 1.9 -3.2 0.7 -0.3 -3.4 1.4 -2.1 2.5 -4.2 2.5 -4.6 0 -0.5 0.4 -0.9 0.9 -0.9 0.6 0 0.9 1.2 0.8 2.8 -0.2 2.3 0.2 2.8 2.5 3 2.3 0.3 3 -0.3 4.7 -3.5 1.9 -3.8 1.9 -3.9 0.1 -6.3 -1.8 -2.4 -1.9 -2.4 -3.9 -0.6 -2.7 2.5 -2.6 1.8 0.7 -4.5 l2.7 -5.4 0.3 3.4 c0.3 2.5 2.2 5.6 7.2 11.4 9.5 11.1 9 11.8 -7.4 8.9z m7.9 -4.6 c-1.5 -2 -3.3 -3.6 -4 -3.6 -1.1 0 -4 4.9 -3.3 5.5 0.5 0.5 9.3 2.2 9.7 1.9 0.1 -0.2 -0.9 -1.9 -2.4 -3.8z"/>
  <path d="M256 455.2 c-27.2 -46.5 -50 -85 -50.5 -85.6 -0.6 -0.6 -1.5 -2.2 -2.1 -3.6 -1.1 -2.4 -7.1 -12.7 -48.9 -84 -11.1 -19 -34.1 -58.1 -51 -87 -16.9 -28.9 -31.8 -54.3 -33.2 -56.4 l-2.5 -3.9 84.3 0.7 c46.4 0.3 111.4 0.9 144.4 1.2 33 0.4 102.5 0.9 154.6 1.3 l94.5 0.6 -57.3 96 c-31.6 52.8 -69.2 115.8 -83.7 140 -14.5 24.2 -42.4 71 -62.1 104 -19.7 33 -36 60.3 -36.4 60.6 -0.3 0.4 -22.9 -37.4 -50.1 -83.9z m128 -69.7 c116.7 -192.8 143.1 -236.7 142.7 -237.2 -0.5 -0.4 -146 -2.2 -194.9 -2.3 l-22.8 0 0 21.5 0 21.4 -9.4 14 c-13.1 19.4 -16.4 29.3 -15.1 44.3 0.8 9.3 1 8.7 -13.2 29.8 l-10.5 15.4 4.6 3.9 c4.1 3.5 4.6 4.4 4.6 8.1 0 2.2 -0.7 6.3 -1.5 9 -1.5 4.8 -1.4 5 1 8.2 2.9 3.7 3.2 7.9 0.9 11.2 -1.4 2.1 -1.4 2.6 0.7 6.8 1.9 4 2.1 5.7 1.7 13.5 -0.5 7.7 -0.3 9.3 1.3 11.3 2.6 3.4 9.8 4.8 18 3.6 3.5 -0.5 8.8 -1 11.7 -1 l5.2 0 0 71.2 0 71.2 22.7 -37.4 c12.4 -20.6 36 -59.5 52.3 -86.5z m-275.1 -194.5 c-1.2 -2.2 -2.4 -3.8 -2.6 -3.6 -0.4 0.4 3.7 7.6 4.4 7.6 0.2 0 -0.6 -1.8 -1.8 -4z"/>
  <path d="M251.6 533.3 c-2.6 -4.6 -2.8 -7.3 -0.2 -3.8 1.3 1.7 1.7 1.6 9.2 -2.7 4.3 -2.5 8 -5.2 8.2 -5.9 0.1 -0.8 -0.7 -2.9 -1.8 -4.8 -2.1 -3.4 -3.5 -3.6 -8.2 -1.6 -3.6 1.5 -1.7 -1.3 2.1 -3.4 l4 -2 5 8.6 c5 8.7 5.7 11.1 2.3 8 -1.6 -1.5 -2.2 -1.4 -8.2 1.9 -8.8 4.9 -10.2 6.2 -8.9 8.5 0.6 1.2 0.6 1.9 0 1.9 -0.5 0 -2.1 -2.1 -3.5 -4.7z"/>
  <path d="M358.3 534.1 c0.6 -2.4 -0.9 -3.8 -9.4 -8.4 -6.1 -3.4 -6.6 -3.5 -8.2 -2 -3.3 3.3 -2.5 0.6 2.4 -7.9 l5 -8.7 4 2 c3.8 2.1 5.7 4.8 2.2 3.4 -4.8 -2 -6.2 -1.8 -8.3 1.6 -1.1 1.9 -1.9 4 -1.8 4.8 0.2 0.7 3.9 3.4 8.2 5.9 7.5 4.3 7.9 4.4 9.2 2.7 2.6 -3.5 2.4 -0.8 -0.2 3.8 -2.7 4.9 -4 6 -3.1 2.8z"/>
  <path d="M235.7 505.6 c-2.5 -4.5 -2.6 -7.1 -0.1 -3.8 1.2 1.6 1.9 1.4 9 -2.3 4.2 -2.2 7.9 -4.6 8.2 -5.4 0.6 -1.6 -2.7 -8.1 -4.5 -8.8 -0.7 -0.3 -2.5 0.2 -3.9 1.2 -2.5 1.6 -4.2 1.5 -3.1 -0.2 0.7 -1.1 7.6 -4.7 8.1 -4.2 1.7 2.2 9.5 17.3 9 17.8 -0.3 0.3 -1 -0.2 -1.5 -1.2 -1.4 -2.4 -2.2 -2.2 -10.6 2.5 -6.3 3.6 -7.4 4.6 -7 6.5 0.7 3.6 -0.9 2.7 -3.6 -2.1z"/>
  <path d="M373.9 508.5 c-0.1 -0.5 -0.1 -1.9 0 -3 0.1 -1.6 -1.6 -3.1 -7.2 -6.3 -8.3 -4.7 -8.9 -4.8 -10.7 -2.7 -3.7 4.4 0.2 -4.2 6.7 -15 1.2 -2 1 -2.1 9.2 2.2 0.1 0.1 0 0.6 -0.4 1.2 -0.4 0.7 -1.4 0.5 -3 -0.5 -3.3 -2.1 -5 -1.3 -7.4 3.5 -2.4 4.5 -2.7 4.1 7.3 9.6 5.7 3.2 7.2 3.6 8.7 2.7 2.5 -1.6 3.4 -1.5 2 0.2 -0.7 0.8 -2 3.1 -3.1 5.2 -1.1 2.2 -2 3.5 -2.1 2.9z"/>
  <path d="M211.6 463.6 c-3.1 -5.3 -3.3 -6.5 -0.7 -4.2 1.8 1.7 2.3 1.5 10 -3 7.2 -4.1 8 -4.9 7.5 -7 -0.9 -3.7 0.2 -2.9 3 2.2 3.1 5.6 3.2 6.3 0.6 3.9 -1.9 -1.7 -2.2 -1.6 -10 3 -7.2 4.3 -8.1 5 -7.6 7.1 0.9 3.5 0.1 2.9 -2.8 -2z"/>
  <path d="M398.5 462.7 c0.5 -2 -0.4 -2.8 -6.8 -6.5 -8.4 -4.7 -9.4 -4.9 -11.3 -2.4 -2.3 3 -1.5 -0.3 1.2 -5.2 2.9 -5.1 3.9 -5.9 3 -2.1 -0.7 2.7 0.3 3.6 11.1 9.2 5.2 2.7 5.2 2.8 6.7 0.8 1.3 -1.7 1.5 -1.7 1.6 -0.4 0 0.9 -0.6 2.2 -1.4 2.8 -0.8 0.7 -1.7 2.3 -2 3.6 -0.4 1.4 -1.1 2.5 -1.6 2.5 -0.6 0 -0.8 -1 -0.5 -2.3z"/>
  <path d="M200.3 444.5 l-1.7 -3.5 6.3 -9.1 c3.4 -5 6 -9.3 5.8 -9.5 -0.5 -0.6 -14.5 7.4 -15.3 8.7 -0.3 0.6 0 1.7 0.7 2.5 0.6 0.8 0.9 1.7 0.5 2.1 -0.7 0.8 -0.6 0.9 -4 -4.9 -2.8 -5 -2.8 -5.6 0.3 -3.6 1.6 1 3.2 0.4 10.1 -3.5 4.6 -2.6 8.9 -4.7 9.6 -4.7 2.7 0 1.3 3.6 -4.6 12.5 -3.2 4.9 -5.8 9.1 -5.5 9.3 0.4 0.4 8.1 -3.9 12.7 -7 2.3 -1.6 2.6 -2.3 1.8 -3.9 -2.2 -4.1 0.9 -1.7 3.5 2.7 2.6 4.5 3 6.9 0.5 3.9 -1.8 -2.1 -2.4 -2 -10.7 2.7 -6.3 3.6 -7.4 4.6 -7 6.5 0.6 3.5 -1.1 2.7 -3 -1.2z"/>
  <path d="M409.6 443.6 c0.5 -2.1 -0.3 -2.8 -7.6 -7 -7.8 -4.6 -8.3 -4.7 -10.1 -3 -1 0.9 -1.9 1.5 -1.9 1.2 0 -0.8 5.1 -9.8 5.5 -9.8 0.2 0 0.3 1.2 0.2 2.7 -0.2 2.3 0.7 3.2 7.3 6.9 4.1 2.4 7.6 4.2 7.8 4 0.1 -0.2 -2.7 -4.7 -6.3 -10.1 -5.1 -7.5 -6.3 -10 -5.5 -11 1.4 -1.6 2.1 -1.4 12.4 4.4 7.3 4 8 4.3 9.2 2.7 0.7 -1 1.5 -1.3 1.8 -0.7 0.4 0.5 0.1 1.3 -0.5 1.7 -0.6 0.3 -1.7 2.2 -2.5 4 -1.7 4.1 -3.2 4.4 -2.7 0.7 0.4 -2.5 -0.3 -3.2 -6.9 -6.9 -4 -2.3 -7.5 -4 -7.7 -3.8 -0.3 0.3 2.4 4.5 5.8 9.5 l6.3 9.1 -1.7 3.9 c-2 4.3 -3.9 5.3 -2.9 1.5z"/>
  <path d="M173.7 397.9 c-3.2 -5.8 -3.4 -6.8 -0.8 -4.5 1.8 1.6 2 1.5 4.5 -2.8 1.4 -2.4 2.6 -4.7 2.6 -5 0 -0.3 -2.8 -0.6 -6.1 -0.6 -5.3 0 -6 0.2 -4.9 1.5 0.6 0.8 1 1.9 0.8 2.6 -0.2 0.6 -1.8 -1.2 -3.5 -3.9 -1.7 -2.8 -2.9 -5.3 -2.6 -5.6 0.3 -0.3 1.1 0.1 1.7 0.9 0.7 0.9 3.9 1.7 8.7 2.1 6.4 0.5 8 0.4 10.3 -1.1 2.1 -1.4 2.6 -2.4 2.1 -4.2 -0.3 -1.3 -0.1 -2.3 0.5 -2.3 0.5 0 1 0.4 1 0.9 0 0.4 1.1 2.5 2.5 4.6 2.6 3.7 2.5 6.6 0 3.2 -1.2 -1.7 -1.5 -1.7 -4.4 -0.2 -4 2 -10.8 14.9 -9.1 17 0.6 0.7 0.7 1.5 0.3 1.8 -0.5 0.3 -2.1 -1.7 -3.6 -4.4z"/>
  <path d="M435.6 397.6 c0.3 -1.5 -0.4 -4.2 -2.1 -7.6 -4.6 -9 -9.2 -12.1 -12.1 -8.2 -2.3 3 -1.5 -0.3 1.2 -5.2 2.8 -5.1 3.9 -5.9 3 -2.2 -1 4 2.4 5.6 12.1 5.6 6.8 0 8.4 -0.3 9.2 -1.7 0.5 -1 1.2 -1.5 1.5 -1.2 1 0.9 -4.5 10 -5.5 9.3 -0.6 -0.3 -0.5 -1.1 0.2 -2 1.8 -2.1 0.7 -2.5 -5.4 -2.2 l-5.6 0.3 3.1 5.4 c2.5 4.3 3.3 5 4 3.7 0.5 -0.9 1.3 -1.6 1.8 -1.6 1.2 0 -4.1 10 -5.3 10 -0.4 0 -0.5 -1.1 -0.1 -2.4z"/>
  <path d="M157.3 367.5 c-3.3 -1.4 -6.3 -5.9 -6.3 -9.4 0 -3 5.5 -8.7 10.2 -10.5 5.2 -2.1 9 -1.3 12.3 2.6 3.2 3.8 3.2 7.8 -0.1 11.8 -4.6 5.4 -11.1 7.7 -16.1 5.5z m10.2 -4 c2.5 -1.4 4.8 -3.7 5.5 -5.5 1.1 -2.8 1.1 -3.4 -0.7 -5.8 -1.3 -1.7 -3.1 -2.8 -5.1 -3 -3.6 -0.4 -10.7 3 -12.2 5.7 -1.8 3.4 -1.2 7.8 1.2 9.5 3.2 2.2 6.5 2 11.3 -0.9z"/>
  <path d="M447.8 365 c-4.4 -1.3 -8.9 -5.1 -10.4 -8.6 -1.2 -2.9 -1.2 -3.9 0.1 -6.9 3.1 -7.5 13.1 -7.9 20.2 -0.8 4.3 4.4 4.5 9 0.6 13.2 -3.1 3.4 -6.5 4.4 -10.5 3.1z m9.5 -5.2 c2.6 -3.5 1.7 -7 -2.8 -10.3 -4.8 -3.7 -10.6 -4.4 -13.4 -1.6 -3 3 -2.7 7.2 0.7 10.4 5.6 5.3 12.2 6 15.5 1.5z"/>
  <path d="M140.1 339.5 c-1.3 -2.5 -2.1 -4.8 -1.8 -5.2 0.4 -0.3 0.9 0.2 1.3 1.1 0.9 2.3 2.3 2 10 -2.2 5.7 -3.1 7 -4.2 7.2 -6.6 0.4 -3.2 -2.2 -6.6 -5 -6.6 -1.1 0 -5.1 1.8 -8.9 4 -6.2 3.7 -6.8 4.4 -6.3 6.5 0.3 1.4 0.4 2.5 0.1 2.5 -1 0 -5.7 -9.3 -5.1 -9.9 0.4 -0.3 0.9 0 1.1 0.7 0.7 2 2.8 1.4 9.4 -2.5 7.7 -4.5 11.4 -4.7 14.5 -0.8 5.1 6.4 3.8 9.6 -5.7 15.1 -5.8 3.3 -7.3 4.7 -7.2 6.3 0.4 3.4 -1 2.4 -3.6 -2.4z"/>
  <path d="M468.9 341.5 c0 -0.5 -0.2 -1.8 -0.3 -2.8 0 -1.2 -2.8 -3.4 -7.6 -6.1 -6.9 -3.9 -7.5 -4.4 -7.8 -7.7 -0.2 -2.7 0.3 -4.4 2.3 -6.8 3.5 -4.1 6.1 -4 14.6 0.7 5.9 3.2 7.1 3.5 8.9 2.4 1.6 -1 2 -1 2 0.2 0 0.7 -0.6 1.9 -1.4 2.5 -0.8 0.7 -1.7 2.3 -2 3.6 -0.8 3.3 -2.5 3.2 -2.3 -0.1 0.2 -2.2 -0.8 -3.1 -7.1 -6.6 -6.3 -3.5 -7.7 -3.9 -9.7 -3 -2.8 1.3 -4.3 5.7 -2.8 8.1 0.6 0.9 4 3.2 7.6 5.1 5.8 3.1 6.9 3.3 8.8 2.2 2.7 -1.7 3.7 -0.8 1.7 1.5 -0.9 1 -2.3 3.2 -3.1 4.8 -0.9 1.7 -1.7 2.6 -1.8 2z"/>
  <path d="M121 306.4 c-3.6 -6.5 -4.1 -7.9 -3.2 -10 1.3 -2.7 5.8 -4.2 7.5 -2.5 1.6 1.6 2.7 1.4 2.7 -0.7 0 -1 1.4 -2.6 3 -3.5 1.7 -1 3 -2.5 3 -3.3 0 -1.8 -1.4 -1.8 -5 0.1 -3.6 1.9 -4 0.2 -0.5 -2.1 3 -1.9 5.3 -1.6 7.2 1.3 1.2 1.7 1.2 2.3 0.1 3.2 -0.7 0.6 -2.6 2.1 -4.3 3.5 l-3 2.4 1.8 3.6 c1.9 4.1 2.4 4.2 6.7 1.9 2.6 -1.5 3 -2.2 2.6 -4.5 -0.7 -3.3 1 -3.8 2 -0.5 0.3 1.2 1.5 3.4 2.6 5 1.1 1.5 1.5 2.7 0.9 2.7 -0.5 0 -1.3 -0.4 -1.6 -1 -1.1 -1.7 -3.1 -1.1 -10.5 3.1 -6.2 3.6 -7.1 4.5 -6.7 6.5 0.8 4.4 -1.1 2.5 -5.3 -5.2z m7.1 -1.1 l2.8 -1.7 -2.1 -3.8 c-2.6 -4.6 -5.2 -5.6 -7.9 -3.2 -2 1.8 -1.9 4.1 0.7 8.2 1.7 2.6 2.7 2.7 6.5 0.5z"/>
  <path d="M486.4 309.6 c0.7 -2.9 -0.3 -3.7 -11.2 -9.4 -5 -2.5 -5.4 -2.6 -6.6 -1 -2.4 3.3 -2.4 0.6 0 -2.9 1.3 -2 2.4 -4 2.4 -4.4 0 -0.5 0.4 -0.9 0.9 -0.9 0.4 0 0.6 1 0.4 2.3 -0.3 1.6 0.3 2.6 2.5 4 4.2 2.4 5 2.2 6.9 -1.9 1.8 -3.6 1.7 -3.6 -0.7 -5.5 -5.9 -4.4 -6.3 -4.9 -4.7 -7.2 1.9 -2.9 4.6 -3.2 7.7 -0.8 3.1 2.5 1.9 3.9 -1.4 1.7 -5.8 -3.7 -6.2 -0.8 -0.6 4.4 3 2.7 4.3 3.4 5.6 2.7 2.4 -1.3 6.2 0.7 7 3.8 0.5 1.9 -0.3 4 -3 8.4 -2 3.3 -3.6 6.4 -3.6 6.9 0 0.6 -0.5 1.4 -1.1 1.8 -0.9 0.5 -1 -0.1 -0.5 -2z m5.1 -9.3 c2 -4.2 1.2 -6.6 -2.4 -7.1 -2.6 -0.4 -4.7 1.1 -6.7 4.9 -1.3 2.7 -1.3 2.9 1.3 4.3 4.3 2.4 5.9 1.9 7.8 -2.1z"/>
  <path d="M97.1 265.4 c-1.2 -2 -2.1 -4 -1.9 -4.5 0.2 -0.4 3.2 -4 6.7 -7.9 3.5 -3.9 6.2 -7.3 5.9 -7.5 -0.2 -0.2 -4.2 0.5 -8.8 1.5 -11.3 2.6 -11.4 2.6 -13.4 -1.6 -1.8 -3.9 -1.7 -5.4 0.4 -2.9 1.1 1.4 2.2 1 8.9 -2.6 8.5 -4.7 9.4 -5.5 8 -8.1 -0.6 -1.1 -0.6 -1.8 0 -1.8 0.5 0 2.1 2.1 3.5 4.6 2.8 5.1 3.3 6.5 1.4 4.6 -0.7 -0.7 -2.1 -1.2 -3.1 -1.2 -2.1 0 -15.7 7.1 -15.7 8.1 0 0.4 4.8 -0.4 10.7 -1.6 15.1 -3.3 15.4 -2.8 5.3 8.3 -7.1 7.9 -8.8 10.6 -4.7 8 1.2 -0.8 4.8 -3 8 -4.9 4.9 -2.9 5.7 -3.7 5.2 -5.6 -0.3 -1.3 -0.1 -2.3 0.5 -2.3 0.5 0 1.2 1.1 1.6 2.5 0.3 1.3 1.2 2.9 2 3.6 0.8 0.6 1.4 1.9 1.4 2.8 -0.1 1.3 -0.3 1.3 -1.6 -0.4 -1.5 -2 -1.5 -1.9 -6.7 0.8 -10.8 5.6 -11.8 6.5 -11.1 9.2 0.9 3.5 0 3.1 -2.5 -1.1z"/>
  <path d="M512.4 263.7 c0.6 -2.4 0 -3 -7.1 -7.1 -8.5 -5 -9.8 -5.3 -10.7 -3.1 -0.3 0.8 -1 1.5 -1.6 1.5 -1.1 0 4.1 -10 5.3 -10 0.4 0 0.5 1.1 0.1 2.4 -0.5 2.1 0.3 2.8 7.3 6.9 4.3 2.5 8 4.3 8.2 4.1 0.2 -0.2 -2.9 -3.9 -6.9 -8.3 -9.4 -10.5 -9.1 -11.6 2.7 -9 4.8 1 9.9 2.1 11.2 2.4 4.4 1.1 0.8 -1.8 -6.9 -5.5 -6.2 -3 -7.4 -3.3 -9.2 -2.1 -1.1 0.7 -1.9 0.9 -1.7 0.4 1.9 -4.5 4.5 -9.3 5.1 -9.3 0.4 0 0.6 1.2 0.5 2.6 -0.2 2.2 0.8 3.2 7.6 7.1 7.7 4.5 7.8 4.5 9.9 2.7 1.1 -1.1 1.9 -1.4 1.6 -0.9 -0.2 0.6 -1.1 2.5 -1.8 4.3 -1.7 3.8 -2.2 3.8 -13.6 1.2 -4.8 -1.1 -8.8 -1.9 -9 -1.7 -0.2 0.1 2.9 3.8 6.8 8 l7.1 7.8 -1.9 3.5 c-2.4 4.5 -3.9 5.5 -3 2.1z"/>
  <path d="M75.2 227 c-1.7 -2.7 -2.7 -5.2 -2.2 -5.5 0.4 -0.3 1 0.2 1.4 1 0.9 2.3 3.3 1.8 10 -2.2 8.7 -5.2 8.7 -5.2 7.5 -7.4 -0.6 -1.2 -0.6 -1.9 0 -1.9 0.8 0 6.1 8.4 6.1 9.8 0 0.3 -0.9 -0.3 -2.1 -1.4 -2 -1.8 -2.1 -1.8 -6.2 0.5 -10.9 6.3 -11.9 7.1 -11.3 9.7 0.9 3.5 0.3 3 -3.2 -2.6z"/>
  <path d="M533.5 225.7 c0.5 -2 -0.4 -2.8 -6.8 -6.5 -8.4 -4.7 -9.4 -4.9 -11.3 -2.4 -0.9 1.2 -1.3 1.3 -1.4 0.4 0 -0.8 0.9 -2.5 2 -3.9 1.1 -1.4 2 -3.2 2 -3.9 0 -0.7 0.5 -1.6 1.1 -2 0.9 -0.5 1 0.1 0.5 2 -0.7 2.8 0.2 3.6 11.1 9.3 5.2 2.7 5.2 2.8 6.7 0.8 2.3 -3 1.9 -0.6 -0.6 4.3 -2.5 4.5 -4.2 5.6 -3.3 1.9z"/>
  <path d="M64.5 209 c-0.8 -1.6 -1.5 -3.4 -1.5 -4 0 -0.6 2.7 -5.1 6 -10 3.3 -5 5.8 -9 5.4 -9 -1.8 0 -15.4 8.3 -15.4 9.4 0 0.6 0.5 1.7 1.2 2.4 0.8 0.8 0.8 1.2 0.1 1.2 -1.1 0 -6.4 -8.2 -5.8 -8.8 0.2 -0.2 1.1 0.2 2.2 0.8 1.5 1 3.1 0.4 9.8 -3.4 13.4 -7.7 14.6 -6 5.4 7.5 -3.4 4.9 -6 9.1 -5.8 9.4 0.2 0.2 3.7 -1.5 7.7 -3.8 6.3 -3.6 7.3 -4.5 6.9 -6.5 -0.2 -1.2 0 -2.5 0.4 -2.8 0.5 -0.3 0.9 -0.1 0.9 0.4 0 0.5 1.1 2.6 2.5 4.7 2.5 3.6 2.7 6.1 0.3 3.7 -1.9 -1.9 -3.5 -1.5 -11 2.9 -6.1 3.6 -6.9 4.4 -6.5 6.5 0.6 3.3 -0.9 3 -2.8 -0.6z"/>
  <path d="M544.6 206.6 c0.5 -2.1 -0.3 -2.8 -6.3 -6.3 -9.2 -5.3 -10.1 -5.5 -11.2 -3.5 -0.5 0.9 -1.2 1.4 -1.5 1.1 -0.6 -0.6 4.1 -9.9 5 -9.9 0.3 0 0.3 1.2 0.2 2.7 -0.3 2.4 0.5 3.1 7.2 6.9 4.1 2.4 7.6 4.1 7.8 4 0.2 -0.2 -2.6 -4.8 -6.3 -10.1 -5.1 -7.5 -6.3 -10 -5.5 -11 1.4 -1.6 2.1 -1.4 12.4 4.4 7.3 4 8 4.3 9.2 2.7 0.7 -1 1.5 -1.3 1.8 -0.7 0.4 0.5 0.1 1.3 -0.5 1.7 -0.6 0.3 -1.7 2.2 -2.5 4 -0.8 1.9 -1.9 3.4 -2.4 3.4 -0.7 0 -0.7 -0.6 -0.1 -1.8 0.5 -1 0.7 -2.3 0.3 -2.8 -0.9 -1.4 -14.6 -9.3 -15.1 -8.8 -0.3 0.2 2.3 4.5 5.7 9.4 3.4 4.9 6.2 9.3 6.2 9.9 0 1.4 -3.4 7.1 -4.3 7.1 -0.4 0 -0.5 -1.1 -0.1 -2.4z"/>
  <path d="M44.9 174.6 c-4.9 -8.3 -5.3 -9.9 -3.4 -13.8 2.1 -4.3 5.7 -6.9 10.6 -7.5 5.6 -0.8 8.2 1 11.9 7.8 1.7 3.2 3.5 6.1 4.1 6.4 0.5 0.4 0.7 1.1 0.3 1.6 -0.3 0.6 -1.2 0.3 -1.9 -0.8 -1.3 -1.7 -1.8 -1.6 -9 2.2 -8.9 4.7 -10.2 5.9 -8.6 7.9 0.7 0.8 0.8 1.6 0.4 1.9 -0.4 0.2 -2.4 -2.3 -4.4 -5.7z m10.7 -5.8 c4.1 -2.3 7.4 -4.6 7.4 -5 0 -2 -3.2 -6.8 -5.1 -7.9 -5.4 -2.9 -14.9 3 -14.9 9.3 0 3.5 2.3 7.8 4.2 7.8 0.6 0 4.4 -1.9 8.4 -4.2z"/>
  <path d="M562.5 174.7 c0.5 -2 -0.4 -2.8 -6.8 -6.5 -8.4 -4.7 -9.4 -4.9 -11.3 -2.4 -1.2 1.5 -1.3 1.5 -1.4 0.1 0 -0.9 0.7 -2.2 1.4 -2.9 0.8 -0.6 2 -2.7 2.6 -4.5 1.3 -4 7.2 -9.5 10.1 -9.5 6.1 0 13.9 6.8 13.9 12.1 0 1.6 -1.7 5.9 -3.7 9.4 -3.9 6.6 -5.8 8.3 -4.8 4.2z m4.8 -7.6 c0.9 -1.6 1.7 -4 1.7 -5.3 0 -6.6 -9.9 -12.1 -16.1 -8.8 -2.7 1.5 -5.4 6.9 -4 8.3 1.5 1.5 14.4 8.7 15.6 8.7 0.6 0 1.8 -1.3 2.8 -2.9z"/>
  <path d="M484 123.8 c0 -0.5 0.9 -0.8 1.9 -0.8 1.7 0 2 -1 2.6 -7.3 0.9 -9.8 0.5 -12.1 -2.2 -12.5 -4.3 -0.6 -2.3 -2.3 2.2 -2 l4.6 0.3 4.2 9.2 c2.3 5 4.6 9.5 5 9.9 0.4 0.4 0.7 -3.4 0.7 -8.4 0 -8.5 -0.1 -9.2 -2 -9.2 -1.1 0 -2 -0.4 -2 -1 0 -0.5 2.5 -1 5.5 -1 3 0 5.5 0.5 5.5 1 0 0.6 -0.9 1 -1.9 1 -1.7 0 -1.9 1 -2.3 10.4 -0.1 5.7 -0.7 10.8 -1.1 11.2 -1.6 1.6 -3.9 -1.3 -8 -10.3 -2.3 -5 -4.6 -9.5 -5 -9.9 -0.4 -0.4 -0.7 3.4 -0.7 8.5 0 8.4 0.2 9.3 2 9.8 3.7 1 2.1 1.8 -3.5 1.8 -3 0 -5.5 -0.3 -5.5 -0.7z"/>
  <path d="M520 124.1 c0 -0.5 1 -1.1 2.3 -1.3 2.1 -0.3 2.2 -0.7 2.2 -9.8 0 -9.2 -0.1 -9.4 -2.5 -10.1 -3.3 -0.9 -2.8 -1 5.5 -1.4 9.1 -0.4 13.1 1.2 15.1 6.2 2.3 5.4 1.3 11.1 -2.6 14.6 -2.8 2.5 -3.7 2.7 -11.5 2.7 -4.7 0 -8.5 -0.4 -8.5 -0.9z m18 -2.9 c3.3 -2.7 3.9 -10.8 1.1 -14.3 -2.1 -2.7 -6.9 -4.3 -9.6 -3.3 -1.2 0.5 -1.5 2.5 -1.5 10 l0 9.4 3.9 0 c2.3 0 4.8 -0.8 6.1 -1.8z"/>
  <path d="M418.4 122.8 c-0.2 -0.4 0.6 -0.8 1.8 -1 2.2 -0.3 2.3 -0.8 2.6 -10 0.3 -9.3 0.2 -9.8 -1.8 -9.8 -1.1 0 -2 -0.5 -2 -1.1 0 -0.6 1.9 -0.9 4.7 -0.7 5.2 0.3 4.8 -0.3 8.8 14.1 0.9 3.2 2 5.6 2.3 5.2 0.4 -0.3 2.1 -4.8 3.8 -9.8 l3.1 -9.2 3.9 -0.1 c4.9 0 6.7 0.8 3.4 1.6 -2.4 0.6 -2.5 0.8 -2.5 10 0 9.1 0.1 9.5 2.3 9.8 4.6 0.7 2 2.2 -3.8 2.2 -3.3 0 -6 -0.4 -6 -1 0 -0.5 0.9 -1 1.9 -1 1 0 2.2 -0.7 2.5 -1.6 1 -2.5 0.7 -17.9 -0.3 -16.8 -0.5 0.5 -2.3 5.3 -4.1 10.7 -1.9 6 -3.7 9.7 -4.5 9.7 -0.9 0 -2.7 -4 -4.8 -10.7 l-3.5 -10.8 -0.1 9.8 c-0.1 9.3 0 9.7 2.1 9.7 1.2 0 1.8 0.3 1.4 0.8 -1 0.9 -10.6 0.9 -11.2 0z"/>
  <path d="M461 123 c0 -0.5 1.1 -1 2.5 -1 l2.6 0 -0.3 -9.7 c-0.3 -8.5 -0.5 -9.8 -2 -9.8 -1 0 -1.8 -0.4 -1.8 -0.8 0 -0.4 0.2 -0.7 0.5 -0.7 0.3 0 3.1 0 6.2 0 3.1 0 5.3 0.3 4.9 0.7 -0.4 0.4 -1.5 0.8 -2.4 0.8 -1.5 0 -1.7 1.4 -2 9.8 -0.3 9.2 -0.2 9.7 1.8 9.7 1.1 0 2 0.5 2 1 0 0.6 -2.7 1 -6 1 -3.3 0 -6 -0.4 -6 -1z"/>
  <path d="M305.2 121.4 c-4.6 -3.2 -6.5 -10.8 -4.3 -16.7 2.7 -7.1 10.9 -9 16.2 -3.8 2.6 2.6 2.9 3.6 2.9 9.1 0 5.7 -0.3 6.5 -3.4 9.6 -3.8 3.8 -7.7 4.4 -11.4 1.8z m8.7 -2.1 c4.3 -3.5 4.5 -15 0.5 -18 -3 -2.2 -7 -1.6 -9.4 1.5 -3.1 3.8 -2.5 13.6 0.9 16.3 2.9 2.4 5.3 2.4 8 0.2z"/>
  <path d="M337 121 c-1.7 -1.7 -2 -3.3 -2 -11 0 -7.3 -0.3 -9 -1.5 -9 -0.8 0 -1.5 -0.4 -1.5 -1 0 -0.5 2.5 -1 5.5 -1 3 0 5.5 0.5 5.5 1 0 0.6 -1.1 1 -2.5 1 -2.5 0 -2.5 0.1 -2.5 8.8 0 9.8 0.7 11.2 5.5 11.2 4.8 0 5.5 -1.4 5.5 -11.2 0 -8.1 -0.2 -8.8 -2 -8.8 -1.1 0 -2 -0.4 -2 -1 0 -0.5 2.5 -1 5.5 -1 5.4 0 7.4 1.3 3.5 2.3 -1.8 0.5 -2 1.4 -2 8.5 0 10.3 -1.9 13.2 -8.6 13.2 -3.1 0 -5 -0.6 -6.4 -2z"/>
  <path d="M366 122 c0 -0.5 0.9 -1 1.9 -1 1.6 0 2.1 -1 2.6 -5.2 0.4 -2.9 0.5 -7.3 0.3 -9.8 -0.2 -3.8 -0.7 -4.6 -2.5 -4.8 -1.3 -0.2 -2.3 -0.7 -2.3 -1.2 0 -0.4 3.8 -0.7 8.5 -0.6 7.2 0.1 8.8 0.4 10.6 2.3 2.6 2.6 2 7 -1.2 8.1 -1.9 0.7 -1.9 0.9 -0.5 2.1 1 0.8 1.6 2.9 1.6 5.3 0 3.2 0.3 3.9 1.8 3.6 1.1 -0.2 1.8 -1.4 2 -3.6 0.4 -4.2 2.2 -4.2 2.2 0.1 0 3.9 -1.5 5.7 -4.7 5.7 -2.3 0 -4.8 -3.3 -4 -5.3 0.2 -0.7 0.1 -2.2 -0.4 -3.4 -0.7 -1.9 -1.6 -2.3 -4.9 -2.3 l-4.1 0 0.3 4.3 c0.2 3.5 0.7 4.3 2.6 4.5 4.6 0.7 2 2.2 -3.8 2.2 -3.3 0 -6 -0.4 -6 -1z m16.1 -13 c2.2 -1.2 2.5 -5.2 0.5 -6.9 -0.8 -0.7 -3.2 -1.1 -5.3 -0.9 -3.7 0.3 -3.8 0.4 -4.1 4.6 l-0.3 4.2 3.6 0 c2 0 4.5 -0.5 5.6 -1z"/>
  <path d="M228 118.8 c-1.1 -1.8 -3.4 -6.6 -5.2 -10.5 -1.8 -4 -3.6 -7.3 -4 -7.3 -0.5 0 -0.8 4 -0.8 9 0 8.2 0.2 9 1.9 9 1.1 0 2.3 0.5 2.6 1 0.4 0.6 -1.7 1 -5.4 1 -5.9 0 -8.5 -1.5 -3.8 -2.2 2.1 -0.3 2.2 -0.7 2.2 -9.8 0 -9.2 -0.1 -9.4 -2.5 -10 -3.4 -0.8 -1.4 -1.8 3.3 -1.6 l3.8 0.1 4.7 10.3 c5.2 11.3 6 11.4 6.1 0.2 0.1 -6.6 -0.7 -9.3 -2.6 -8.8 -0.6 0.2 -1.1 0 -1.2 -0.4 -0.1 -0.5 0.1 -0.8 0.4 -0.8 0.3 0 2.5 0 5 0 2.5 0 4.5 0.5 4.5 1 0 0.6 -0.9 1 -2 1 -1.9 0 -2 0.7 -2 9.9 0 7.4 -0.4 10.2 -1.5 11.1 -1.2 1 -1.8 0.6 -3.5 -2.2z"/>
  <path d="M271.5 120.9 c-0.3 -0.4 0.5 -0.9 1.7 -1.1 1.8 -0.2 2.4 -1 2.6 -3.8 0.3 -4.5 -6.8 -16 -9.8 -16 -1.1 0 -2 -0.4 -2 -1 0 -0.6 2.7 -1 6 -1 3.3 0 6 0.4 6 1 0 0.6 -0.9 1 -2 1 -2.6 0 -2.5 0.4 0.6 5.7 2.9 5 3.6 4.8 7.2 -1.6 l2.3 -4.1 -2.5 0 c-1.4 0 -2.6 -0.4 -2.6 -1 0 -1 10.5 -0.8 11.6 0.3 0.4 0.4 -0.2 0.7 -1.4 0.7 -3.3 0 -10.2 10.7 -10.2 15.9 0 3.4 0.3 4.1 2 4.1 1.1 0 2 0.4 2 0.9 0 1.1 -10.8 1.2 -11.5 0z"/>
  <path d="M188.4 119.8 c-0.3 -0.4 0.6 -0.8 2 -0.8 l2.6 0 0 -10 c0 -9.3 -0.1 -10 -2 -10 -1.1 0 -2 -0.4 -2 -1 0 -1.3 10.7 -1.3 11.5 -0.1 0.3 0.5 -0.5 1.1 -1.7 1.3 -2.2 0.3 -2.3 0.8 -2.6 10.1 -0.3 9.2 -0.2 9.7 1.8 9.7 1.1 0 2 0.4 2 0.9 0 1 -11 1 -11.6 -0.1z"/>
  <path d="M86 118.7 c0 -0.5 0.9 -1.1 2.1 -1.4 1.5 -0.4 1.9 -1.1 1.5 -2.7 -0.3 -1.1 -0.6 -2.4 -0.6 -2.8 0 -0.5 -2.2 -0.8 -5 -0.8 -2.7 0 -5 0.3 -5 0.8 0 0.4 -0.3 1.7 -0.6 3 -0.5 1.7 -0.2 2.2 1.4 2.2 1.2 0 2.4 0.5 2.7 1 0.4 0.6 -1.7 1 -5.4 1 -3.4 0 -6.1 -0.4 -6.1 -1 0 -0.5 0.8 -1 1.9 -1 1.4 0 2.7 -2.2 5.6 -10 3.9 -10.5 5.5 -12.9 7.2 -10.8 0.5 0.7 2.5 5.7 4.4 11.1 2.7 8 3.8 9.9 5.7 10.4 1.3 0.3 2 0.8 1.7 1.1 -0.9 0.9 -11.5 0.8 -11.5 -0.1z m0.4 -14.4 c-1.8 -5.9 -2.1 -6.2 -3.4 -2.9 -2.6 7 -2.5 7.6 1.3 7.6 l3.5 0 -1.4 -4.7z"/>
  <path d="M108 119 c0 -0.5 0.8 -1 1.9 -1 1.6 0 1.9 -1 2.3 -8.7 0.6 -10.1 0.3 -11.3 -2.3 -11.3 -1 0 -1.9 -0.4 -1.9 -1 0 -0.6 2.7 -1 6 -1 5.8 0 8.4 1.5 3.8 2.2 -2.2 0.3 -2.3 0.7 -2.3 9.8 l0 9.5 5 0 c4.9 0 5 -0.1 5.5 -3.3 0.3 -1.8 0.8 -3.3 1.3 -3.2 0.4 0 0.7 0.2 0.7 0.5 0 0.3 0 2.3 0 4.5 l0 4 -10 0 c-6 0 -10 -0.4 -10 -1z"/>
  <path d="M139 119 c0 -0.5 1.1 -1 2.5 -1 2.5 0 2.5 0 2.5 -9.6 0 -8.7 -0.2 -9.6 -2 -10.1 -1.1 -0.3 -2 -1 -2 -1.5 0 -0.6 0.7 -0.7 1.6 -0.4 0.9 0.3 3.6 0.6 6.1 0.6 2.6 0 4.3 0.3 3.9 0.7 -0.4 0.4 -1.5 0.8 -2.4 0.8 -1.5 0 -1.7 1.4 -2 9.8 l-0.3 9.8 5.3 -0.3 c5.2 -0.3 5.3 -0.4 5.6 -3.5 0.5 -4.9 2.2 -4 2.2 1.2 l0 4.5 -10.5 0 c-6.3 0 -10.5 -0.4 -10.5 -1z"/>
 </g>
 <g fill="#ffffff">
  <path d="M306 446.2 c0 -68.3 -0.2 -76.2 -1.6 -76.2 -0.8 0 -5.7 0.5 -10.7 1.1 -11.7 1.5 -19.6 0.1 -22.8 -3.9 -1.9 -2.5 -2 -3.5 -1.4 -11.3 0.6 -8.9 -0.1 -12.2 -4 -17.5 -1.4 -1.9 -1.3 -2.4 0.9 -6.5 l2.3 -4.5 -2.3 -2.9 c-2.8 -3.5 -3 -6.8 -0.7 -14.8 l1.6 -6 -6.1 -5.4 -6.2 -5.4 3.9 -5.2 c4.8 -6.6 19.4 -28.4 21.1 -31.7 0.9 -1.7 1.3 -5.5 1.1 -11.5 -0.4 -17 2.5 -25.3 15.5 -44.6 l9.4 -14 0 -21.5 0 -21.6 92.8 0.7 c51 0.4 102.3 1 114 1.4 l21.2 0.6 -26.3 43.5 c-66.4 109.8 -120.5 199.1 -159.4 263.4 l-42.3 70 0 -76.2z"/>
 </g>
</svg>